<svg id="Сгруппировать_131" data-name="Сгруппировать 131" xmlns="http://www.w3.org/2000/svg" width="48" height="48" viewBox="0 0 48 48">
  <rect id="Прямоугольник_57" data-name="Прямоугольник 57" width="48" height="46.071" transform="translate(0 1.929)" fill="none"/>
  <g id="Сгруппировать_146" data-name="Сгруппировать 146" transform="translate(1.5)">
    <path id="Контур_452" data-name="Контур 452" d="M281.556,240.125H248.862a3.227,3.227,0,0,0-3.288,3.156v1.552a3.855,3.855,0,1,0,0,7.7v1.826a3.855,3.855,0,1,0,0,7.705v1.826a3.855,3.855,0,1,0,0,7.705v1.826a3.855,3.855,0,1,0,0,7.7v1.552a3.228,3.228,0,0,0,3.288,3.156h32.694a3.229,3.229,0,0,0,3.288-3.156v-39.4A3.228,3.228,0,0,0,281.556,240.125Zm0,42.888H252.512V242.948h29.045a.341.341,0,0,1,.346.333v39.4A.341.341,0,0,1,281.556,283.013Zm-33.041-39.732a.341.341,0,0,1,.346-.333h.708v2.024a4.128,4.128,0,0,0-1.055-.14Zm0,4.375a1.05,1.05,0,0,1,1.055,1.028V254.5a4.132,4.132,0,0,0-1.055-.141Zm0,9.53a1.053,1.053,0,0,1,1.055,1.029v5.819a4.2,4.2,0,0,0-1.055-.141Zm0,9.531a1.053,1.053,0,0,1,1.055,1.029v5.818a4.2,4.2,0,0,0-1.055-.14Zm0,9.53a1.053,1.053,0,0,1,1.055,1.029v5.737h-.708a.341.341,0,0,1-.346-.333Zm-2.941,0V278.3a1.03,1.03,0,1,1,0-2.059Zm0-9.53v2.059a1.03,1.03,0,1,1,0-2.059Zm0-9.531v2.059a1.03,1.03,0,1,1,0-2.059Zm0-9.53v2.057a1.029,1.029,0,1,1,0-2.057Z" transform="translate(-241.578 -240.125)" fill="#fff"/>
    <path id="Контур_453" data-name="Контур 453" d="M272.336,265.091a12.093,12.093,0,0,0-5.353-4.254,6.267,6.267,0,0,0,1.915-4.493,6.7,6.7,0,0,0-13.389,0,6.268,6.268,0,0,0,1.887,4.466,12.065,12.065,0,0,0-5.437,4.306,1.436,1.436,0,0,0-.234,1.119,1.481,1.481,0,0,0,.66.949,1.555,1.555,0,0,0,.851.248,1.688,1.688,0,0,0,.315-.03,1.561,1.561,0,0,0,.991-.626,9.381,9.381,0,0,1,15.215-.017,1.6,1.6,0,0,0,2.157.406,1.48,1.48,0,0,0,.658-.952A1.429,1.429,0,0,0,272.336,265.091Zm-6.546-8.748A3.59,3.59,0,1,1,262.2,252.9,3.521,3.521,0,0,1,265.79,256.343Z" transform="translate(-236.519 -235.819)" fill="#fff"/>
  </g>
</svg>
