<svg id="Сгруппировать_312" data-name="Сгруппировать 312" xmlns="http://www.w3.org/2000/svg" width="48" height="48" viewBox="0 0 48 48">
  <rect id="Прямоугольник_57" data-name="Прямоугольник 57" width="48" height="46.765" transform="translate(0 1.235)" fill="none"/>
  <g id="Сгруппировать_143" data-name="Сгруппировать 143" transform="translate(1.5)">
    <path id="Контур_448" data-name="Контур 448" d="M189.552,249.6a6.556,6.556,0,0,0-4.874,2.156,6.2,6.2,0,0,0-1.547,4.989l2.7,19.757a6.444,6.444,0,0,0,6.42,5.476h27.5a6.444,6.444,0,0,0,6.42-5.476l2.7-19.757a6.192,6.192,0,0,0-1.546-4.988,6.553,6.553,0,0,0-4.875-2.157Zm36.163,6.736-2.7,19.754a3.271,3.271,0,0,1-3.256,2.778h-27.5A3.27,3.27,0,0,1,189,276.084l-2.7-19.754a3.142,3.142,0,0,1,.783-2.531,3.326,3.326,0,0,1,2.473-1.093h32.905a3.328,3.328,0,0,1,2.477,1.093A3.146,3.146,0,0,1,225.716,256.331Z" transform="translate(-183.075 -235.938)" fill="#fff"/>
    <path id="Контур_449" data-name="Контур 449" d="M188.215,248.033h32.04a1.555,1.555,0,1,0,0-3.11h-32.04a1.555,1.555,0,1,0,0,3.11Z" transform="translate(-181.304 -238.094)" fill="#fff"/>
    <path id="Контур_450" data-name="Контур 450" d="M190.216,243.361h26.033a1.556,1.556,0,1,0,0-3.111H190.216a1.556,1.556,0,1,0,0,3.111Z" transform="translate(-180.302 -240.25)" fill="#fff"/>
    <path id="Контур_451" data-name="Контур 451" d="M195.3,270.918a8.583,8.583,0,0,1,11.9,0,1.631,1.631,0,0,0,2.258,0,1.523,1.523,0,0,0,0-2.2,11.532,11.532,0,0,0-2.927-2.075l-.409-.2.286-.351a6.247,6.247,0,0,0,.777-6.8,6.658,6.658,0,0,0-11.872,0,6.247,6.247,0,0,0,.777,6.8l.288.349-.41.2a11.566,11.566,0,0,0-2.928,2.075,1.529,1.529,0,0,0,0,2.2A1.631,1.631,0,0,0,195.3,270.918Zm5.952-12.157a3.324,3.324,0,1,1-3.411,3.322A3.369,3.369,0,0,1,201.254,258.761Z" transform="translate(-178.323 -233.144)" fill="#fff"/>
  </g>
</svg>
