<svg id="Сгруппировать_311" data-name="Сгруппировать 311" xmlns="http://www.w3.org/2000/svg" width="48" height="48" viewBox="0 0 48 48">
  <rect id="Прямоугольник_57" data-name="Прямоугольник 57" width="48" height="45.982" transform="translate(0 2.018)" fill="none"/>
  <g id="Сгруппировать_148" data-name="Сгруппировать 148" transform="translate(0.75)">
    <path id="Контур_454" data-name="Контур 454" d="M285.688,240.4H241.912a1.482,1.482,0,0,0-1.512,1.447v33.511a1.482,1.482,0,0,0,1.512,1.447h14.539v5.484h-2.866a1.448,1.448,0,1,0,0,2.892h20.43a1.447,1.447,0,1,0,0-2.892h-2.868V276.8h14.541a1.483,1.483,0,0,0,1.512-1.447V241.847A1.483,1.483,0,0,0,285.688,240.4Zm-17.562,36.4v5.484h-8.65V276.8Zm16.05-33.509v30.617H243.426V243.3Z" transform="translate(-240.4 -240.4)" fill="#fff"/>
    <path id="Контур_455" data-name="Контур 455" d="M251.64,266.77h6.18a1.494,1.494,0,0,0,1.069-.444L270.219,255a1.51,1.51,0,0,0,0-2.139l-6.18-6.18a1.516,1.516,0,0,0-2.138,0L250.571,258.01a1.5,1.5,0,0,0-.443,1.068v6.182A1.513,1.513,0,0,0,251.64,266.77Zm1.513-3.022v-4.042l9.816-9.818,4.042,4.041-9.819,9.819Z" transform="translate(-235.536 -238.154)" fill="#fff"/>
  </g>
</svg>
