<svg fill="#fff" height="512pt" viewBox="-50 0 512 512" width="512pt" xmlns="http://www.w3.org/2000/svg"><path d="m410.304688 174.859375c.074218-.097656.148437-.199219.214843-.304687.070313-.105469.132813-.210938.195313-.320313.058594-.101563.117187-.207031.171875-.308594.058593-.113281.113281-.226562.164062-.34375.050781-.105469.097657-.214843.140625-.324219.046875-.117187.089844-.234374.128906-.351562.039063-.113281.078126-.226562.113282-.339844.035156-.121094.0625-.242187.089844-.363281.027343-.117187.054687-.230469.078124-.351563.023438-.125.042969-.253906.058594-.382812.015625-.113281.03125-.226562.039063-.339844.015625-.140625.019531-.28125.023437-.425781 0-.074219.011719-.152344.011719-.230469v-109.683594c0-9.644531-7.84375-17.488281-17.488281-17.488281h-39.972656v-11.636719c0-17.460937-14.203126-31.664062-31.664063-31.664062h-290.949219c-17.457031 0-31.660156 14.203125-31.660156 31.664062v47.949219c0 4.140625 3.355469 7.496094 7.496094 7.496094 4.136718 0 7.492187-3.355469 7.492187-7.496094v-47.949219c0-9.195312 7.480469-16.671874 16.671875-16.671874h290.949219c9.191406 0 16.671875 7.476562 16.671875 16.671874v11.636719h-224.257812c-9.640626 0-17.488282 7.84375-17.488282 17.488281v99.691407c0 9.640625 7.847656 17.488281 17.488282 17.488281h224.257812v252.003906c0 9.195313-7.476562 16.671875-16.671875 16.671875h-23.453125c15.410156-23.148437 24.40625-50.914062 24.40625-80.746093 0-80.5625-65.542969-146.101563-146.101562-146.101563-80.5625 0-146.105469 65.539063-146.105469 146.101563 0 29.832031 8.996093 57.597656 24.40625 80.746093h-24.101563c-9.191406 0-16.671875-7.480469-16.671875-16.671875v-317.128906c0-4.140625-3.355469-7.496094-7.492187-7.496094-4.140625 0-7.496094 3.355469-7.496094 7.496094v317.128906c0 17.460938 14.203125 31.664063 31.664062 31.664063h35.519532c26.808594 30.835937 66.304687 50.363281 110.277344 50.363281 43.96875 0 83.464843-19.527344 110.273437-50.363281h34.875c17.460937 0 31.664063-14.203125 31.664063-31.664063v-196.15625l55.394531-58.175781c.054687-.058594.105469-.121094.15625-.183594.09375-.101562.183593-.203125.269531-.308593.074219-.09375.140625-.191407.210938-.289063zm-232.84375 322.152344c-72.296876 0-131.113282-58.820313-131.113282-131.113281 0-72.296876 58.816406-131.113282 131.113282-131.113282 72.292968 0 131.109374 58.816406 131.109374 131.113282 0 72.292968-58.816406 131.113281-131.109374 131.113281zm-64.933594-336.53125v-99.691407c0-1.378906 1.121094-2.5 2.496094-2.5h231.742187.011719.007812 47.460938c1.375 0 2.496094 1.121094 2.496094 2.5v102.1875h-49.957032s-.003906 0-.007812 0-.007813 0-.011719 0h-231.742187c-1.375 0-2.496094-1.121093-2.496094-2.496093zm241.746094 17.488281h32.480468l-32.480468 34.109375zm0 0"/><path d="m251.40625 354.277344h-19.644531c-4.140625 0-7.496094 3.355468-7.496094 7.492187 0 4.140625 3.355469 7.496094 7.496094 7.496094h19.644531c1.433594 0 2.078125.9375 2.335938 1.496094.257812.554687.554687 1.65625-.375 2.746093l-72.734376 85.621094c-1.195312 1.40625-2.703124 1.617188-3.496093 1.617188s-2.300781-.210938-3.496094-1.617188l-72.734375-85.621094c-.929688-1.089843-.632812-2.191406-.375-2.746093.257812-.558594.90625-1.496094 2.335938-1.496094h20.65625c4.136718 0 7.496093-3.355469 7.496093-7.496094v-67.597656h93.246094v33.0625c0 4.136719 3.355469 7.492187 7.496094 7.492187s7.496093-3.355468 7.496093-7.492187v-40.554687c0-4.140626-3.355468-7.496094-7.496093-7.496094h-108.242188c-4.136719 0-7.492187 3.355468-7.492187 7.496094v67.597656h-13.160156c-6.925782 0-13.035157 3.902344-15.941407 10.1875-2.910156 6.285156-1.929687 13.46875 2.554688 18.75l72.734375 85.617187c3.726562 4.386719 9.164062 6.902344 14.921875 6.902344 5.753906 0 11.191406-2.515625 14.917969-6.902344l72.734374-85.621093c4.484376-5.277344 5.464844-12.460938 2.558594-18.746094-2.910156-6.285156-9.015625-10.1875-15.941406-10.1875zm0 0"/><path d="m181.226562 72.4375h-17.675781c-4.996093 0-9.789062 1.296875-9.789062 8.789062v57.332032c0 3.695312 3.296875 4.691406 6.589843 4.691406 3.398438 0 6.695313-.996094 6.695313-4.691406v-22.574219h14.183594c12.183593 0 21.074219-9.085937 21.074219-21.871094 0-12.785156-9.089844-21.675781-21.078126-21.675781zm-1.398437 31.460938h-12.78125v-17.777344c0-1.296875.5-1.699219 1.695313-1.699219h11.085937c5.597656 0 8.59375 4.097656 8.59375 9.691406-.003906 5.390625-3.097656 9.785157-8.59375 9.785157zm0 0"/><path d="m232.558594 100.003906c-4.292969-1.097656-11.6875-2.796875-11.785156-9.089844 0-6.089843 4.992187-8.1875 9.6875-8.1875 6.792968 0 9.6875 2.695313 11.984374 7.992188 1.300782 3.195312 4.695313 3.394531 7.394532 3.09375 3.792968-.398438 5.890625-2.894531 5.09375-5.890625-3.398438-12.585937-13.785156-16.679687-24.871094-16.679687-11.386719 0-22.574219 6.992187-22.574219 19.773437 0 13.984375 12.085938 18.480469 22.875 21.273437 4.894531 1.300782 12.484375 3.097657 12.484375 9.988282 0 6.992187-5.394531 9.890625-11.488281 9.890625-5.890625 0-10.285156-3.597657-12.285156-9.390625-1.296875-3.59375-4.894531-4.492188-8.289063-3.691406-3.097656.695312-4.996094 2.894531-4.296875 6.289062 2.699219 12.6875 13.886719 18.378906 25.070313 18.378906 14.683594 0 24.472656-8.289062 24.472656-22.074218-.101562-14.582032-12.285156-18.777344-23.472656-21.675782zm0 0"/><path d="m289.585938 72.4375h-13.785157c-5.09375 0-9.789062 1.296875-9.789062 8.789062v52.238282c0 7.589844 4.695312 8.886718 9.789062 8.886718h13.785157c19.875 0 27.664062-16.378906 27.664062-34.957031s-7.988281-34.957031-27.664062-34.957031zm0 57.828125h-8.691407c-1.097656 0-1.699219-.398437-1.699219-1.695313v-42.449218c0-1.296875.601563-1.699219 1.699219-1.699219h8.691407c10.886718 0 14.082031 13.183594 14.082031 22.972656 0 9.789063-2.898438 22.871094-14.082031 22.871094zm0 0"/></svg>