<svg xmlns="http://www.w3.org/2000/svg">
    <symbol id="slider-arrow" width="12.068" height="26.219" viewBox="0 0 12.068 26.219">
        <path d="M-7,0l-8,12,8,12" transform="translate(17.404 1.109)" fill="none" stroke="#0ba6c1" stroke-width="4"/>
    </symbol>
    <symbol id="slider-arrow-thin" width="12.027" height="33.06" viewBox="0 0 12.027 33.06">
        <path id="Path_366" data-name="Path 366" d="M-5,0-15,16-5,32" transform="translate(16.179 0.53)" fill="none" stroke="#0ba6c1" stroke-width="2"/>
    </symbol>
    <symbol id="preference0" width="27.2" height="30.92" viewBox="0 0 27.2 30.92">
        <g transform="translate(-242.4 -240.54)">
            <path id="Path_416" data-name="Path 416" d="M268.943,259.66a2.8,2.8,0,0,0-2.143-4.6h-5.1a17.821,17.821,0,0,0,.7-4.46v-.9a3.7,3.7,0,0,0-3.7-3.7h-.9a1,1,0,0,0-.97.757l-.49,1.962c-.636,2.541-2.707,5.62-4.969,6.234a2.786,2.786,0,0,0-2.571-1.693h-5.4a1,1,0,0,0-1,1v16.2a1,1,0,0,0,1,1h5.4a2.817,2.817,0,0,0,2.488-1.517l3.01,1a9.955,9.955,0,0,0,3.162.514H265a2.8,2.8,0,0,0,2.642-3.73,2.8,2.8,0,0,0,1.3-4.47,2.794,2.794,0,0,0,0-3.6Zm-2.143-1H265a1,1,0,1,0,0,2h1.8a.8.8,0,1,1,0,1.6H265a1,1,0,1,0,0,2h1.8a.8.8,0,1,1,0,1.6H265a1,1,0,1,0,0,2,.8.8,0,1,1,0,1.6h-7.54a8.022,8.022,0,0,1-2.53-.41l-3.33-1.111V256.957a7.457,7.457,0,0,0,4.017-2.643,13.214,13.214,0,0,0,2.662-5.11l.3-1.2h.119a1.7,1.7,0,0,1,1.7,1.7v.9a14.333,14.333,0,0,1-.826,4.46H257.8a1,1,0,0,0,0,2h9a.8.8,0,1,1,0,1.6Zm-17.2-2.6v12.6a.8.8,0,0,1-.8.8h-4.4v-14.2h4.4A.8.8,0,0,1,249.6,256.06Z" fill="#fff"/>
            <path id="Path_417" data-name="Path 417" d="M247,265.86a1,1,0,1,0,1,1A1,1,0,0,0,247,265.86Z" fill="#fff"/>
            <path id="Path_418" data-name="Path 418" d="M259.6,244.4a1,1,0,0,0,1-1v-1.86a1,1,0,1,0-2,0v1.86A1,1,0,0,0,259.6,244.4Z" fill="#fff"/>
            <path id="Path_419" data-name="Path 419" d="M254.438,245.953a1,1,0,1,0,1.415-1.415l-1.273-1.273a1,1,0,1,0-1.415,1.415Z" fill="#fff"/>
            <path id="Path_420" data-name="Path 420" d="M264.055,246.245a1,1,0,0,0,.707-.292l1.272-1.273a1,1,0,0,0-1.413-1.415l-1.274,1.273a1,1,0,0,0,.708,1.707Z" fill="#fff"/>
        </g>
    </symbol>
    <symbol id="preference1" width="28.18" height="31.345" viewBox="0 0 28.18 31.345">
        <g transform="translate(-241.91 -240.328)">
            <path id="Path_421" data-name="Path 421" d="M265.964,247.574a14.039,14.039,0,0,0-8.961-4.1v-1.142h1.249a1,1,0,1,0,0-2h-4.5a1,1,0,1,0,0,2H255v1.142a14.022,14.022,0,0,0-6.392,2.058l-.816-.818a2.325,2.325,0,0,0-3.29,0l-1.319,1.322a2.326,2.326,0,0,0,0,3.283l.822.825a14.091,14.091,0,1,0,21.962-2.571Zm-21.365-.12,1.319-1.322a.32.32,0,0,1,.451,0l.591.594c-.32.269-.631.554-.923.848s-.575.6-.845.923l-.592-.594a.317.317,0,0,1,0-.449ZM256,269.667a12.112,12.112,0,1,1,12.084-12.111A12.112,12.112,0,0,1,256,269.667Z" fill="#fff"/>
            <path id="Path_422" data-name="Path 422" d="M256,246.976a10.58,10.58,0,1,0,10.56,10.58A10.582,10.582,0,0,0,256,246.976Zm6.545,10.58a1,1,0,0,0,1,1h.947A8.6,8.6,0,0,1,257,266.07V265.1a1,1,0,0,0-2.006,0v.966a8.6,8.6,0,0,1-7.492-7.511h.947a1,1,0,1,0,0-2.006h-.947A8.6,8.6,0,0,1,255,249.041v.966a1,1,0,0,0,2.006,0v-.966a8.6,8.6,0,0,1,7.492,7.512h-.947A1,1,0,0,0,262.545,257.556Z" fill="#fff"/>
            <path id="Path_423" data-name="Path 423" d="M258.252,256.938h-1.2v-3.6a1,1,0,1,0-2.006,0v4.605a1,1,0,0,0,1,1h2.2a1,1,0,0,0,0-2.006Z" fill="#fff"/>
        </g>
    </symbol>
    <symbol id="preference2" width="32" height="32" viewBox="0 0 32 32">
        <g transform="translate(-240 -240)">
            <rect id="Rectangle_34" data-name="Rectangle 34" width="2" height="2" rx="1" transform="translate(244 244)" fill="#fff"/>
            <rect id="Rectangle_35" data-name="Rectangle 35" width="2" height="2" rx="1" transform="translate(248 244)" fill="#fff"/>
            <path id="Path_415" data-name="Path 415" d="M272,250.524v-9.048A1.476,1.476,0,0,0,270.524,240H241.476A1.476,1.476,0,0,0,240,241.476v9.048A1.476,1.476,0,0,0,241.476,252H242v18h-1a1,1,0,0,0-1,1h0a1,1,0,0,0,1,1h4a1,1,0,0,0,1-1h0a1,1,0,0,0-1-1h-1V252h2v14h20V252h2v18h-1a1,1,0,0,0-1,1h0a1,1,0,0,0,1,1h4a1,1,0,0,0,1-1h0a1,1,0,0,0-1-1h-1V252h.524A1.476,1.476,0,0,0,272,250.524ZM248.943,264l3.308-4.631,2.957,1.972,3.675-4.593L263.234,264ZM264,252v9.39l-4.883-8.138-4.325,5.407-3.043-2.028L248,261.88V250h16Zm2-2v-2H246v2h-4v-8h28v8Z" fill="#fff"/>
            <rect id="Rectangle_36" data-name="Rectangle 36" width="16" height="2" rx="1" transform="translate(252 244)" fill="#fff"/>
        </g>
    </symbol>
    <symbol id="preference3" width="32" height="28.463" viewBox="0 0 32 28.463">
        <g transform="translate(-240 -241.768)">
            <path id="Path_428" data-name="Path 428" d="M271.93,247.611a2.019,2.019,0,0,0-.945-1.234l-5.752-3.321a2.034,2.034,0,0,0-2.775.743l-1.107,1.917V243.8a2.033,2.033,0,0,0-2.03-2.031h-6.642a2.033,2.033,0,0,0-2.031,2.031v1.917l-1.106-1.917a2.033,2.033,0,0,0-2.774-.743l-5.753,3.321a2.034,2.034,0,0,0-.743,2.774l10.49,18.169a3.861,3.861,0,0,0,3.721,2.911h3.034a3.861,3.861,0,0,0,3.721-2.911l5.3-9.173c.008-.013.022-.021.03-.034l5.164-8.962A2.012,2.012,0,0,0,271.93,247.611Zm-29.924.54,5.8-3.351,1.367,2.369-5.8,3.35Zm8.642,14.678-.126.072-1.382-2.394,1.508-.87Zm0-5.5-2.509,1.448-1.382-2.394,3.891-2.246Zm0-5.5-4.892,2.823-1.382-2.393,5.8-3.35.472.817Zm8.7,14.573a1.835,1.835,0,0,1-1.833,1.833h-3.034a1.835,1.835,0,0,1-1.833-1.833v-3.563h6.7Zm0-5.564h-6.7v-2.764h6.7Zm0-4.766h-6.7V253.3h6.7Zm0-4.766h-6.7v-2.764h6.7Zm0-4.766h-6.7l.024-2.764h4.377l2.294.029Zm2,3.186.473-.817,5.8,3.35-1.263,2.195c0,.006-.012.01-.016.017l-.1.181-4.893-2.823Zm.127,13.182-.127-.073v-3.192l1.509.87Zm-.127-5.576v-3.192l3.892,2.246-1.382,2.394Zm7.276-6.807-5.8-3.347,1.4-2.382,5.752,3.321a.029.029,0,0,1,.011.04Z" fill="#fff"/>
            <circle id="Ellipse_8" data-name="Ellipse 8" cx="1" cy="1" r="1" transform="translate(255 264.229)" fill="#fff"/>
        </g>
    </symbol>
    <symbol id="preference4" width="31.2" height="31.2" viewBox="0 0 31.2 31.2">
        <g transform="translate(-240.4 -240.4)">
            <path id="Path_424" data-name="Path 424" d="M270.592,269.584h-3.9v-8.8a1.918,1.918,0,0,0-1.916-1.916h-1.271a7.986,7.986,0,0,0-2.083-3.858,6.592,6.592,0,0,0-2.078-1.4,9.181,9.181,0,0,0,2.816-6.473,6.893,6.893,0,0,0-1.806-5.083,6.558,6.558,0,0,0-8.715,0,6.9,6.9,0,0,0-1.806,5.083,9.182,9.182,0,0,0,2.817,6.473,6.593,6.593,0,0,0-2.078,1.4,8,8,0,0,0-2.083,3.858h-1.271a1.919,1.919,0,0,0-1.917,1.916v8.8h-3.9a1.008,1.008,0,1,0,0,2.016h29.184a1.008,1.008,0,0,0,0-2.016ZM256,242.417a3.708,3.708,0,0,1,3.926,2.859,5.148,5.148,0,0,1-1.692-.555,2.145,2.145,0,0,0-1.49-.306,2.809,2.809,0,0,0-1.136.628,5.687,5.687,0,0,1-3.712,1.219C252.242,242.919,254.609,242.417,256,242.417Zm.857,4.209c.082-.064.189-.148.267-.2.057.026.125.06.188.091l.031.015a7.272,7.272,0,0,0,2.8.8,7.378,7.378,0,0,1-1.323,3.839,3.085,3.085,0,0,1-5.641,0,7.534,7.534,0,0,1-1.217-2.893C255,248.1,256.159,247.178,256.857,246.626Zm-1.341,8.445h.968a4.947,4.947,0,0,1,4.939,3.8H250.577A4.948,4.948,0,0,1,255.516,255.071Zm9.164,5.812v8.7H247.321v-8.7Z" fill="#fff"/>
            <path id="Path_425" data-name="Path 425" d="M256,265.727a1.008,1.008,0,1,0-1.008-1.008A1.01,1.01,0,0,0,256,265.727Z" fill="#fff"/>
        </g>
    </symbol>
    <symbol id="preference5" width="31.55" height="25.953" viewBox="0 0 31.55 25.953">
        <g transform="translate(-200.225 -203.024)">
            <path id="Path_426" data-name="Path 426" d="M228.53,203.024H206.835a3.262,3.262,0,0,0-3.226,3.014h-.138a3.252,3.252,0,0,0-3.246,3.231v16.456a3.273,3.273,0,0,0,3.246,3.252h21.694a3.264,3.264,0,0,0,3.226-3.014h.138a3.251,3.251,0,0,0,3.246-3.232V206.276A3.271,3.271,0,0,0,228.53,203.024ZM228.4,221.18a4.184,4.184,0,0,0,.768-.728l.619-.8v3.078a1.262,1.262,0,0,1-1.26,1.247H228.4ZM202.21,209.271a1.265,1.265,0,0,1,1.261-1.249h21.693a1.252,1.252,0,0,1,1.253,1.247v3.868c-.035,0-.07.005-.105.005h-4.141a4.362,4.362,0,0,0,0,8.723h4.148c.031,0,.061,0,.091-.006l.007,3.866a1.271,1.271,0,0,1-1.255,1.267H203.473a1.284,1.284,0,0,1-1.263-1.267Zm19.962,10.616a2.38,2.38,0,0,1,0-4.76H226.3a3.567,3.567,0,0,0,1.545-.349,3.633,3.633,0,0,0,1.313-1.056l.621-.8.005,3.489-2.188,2.839a1.663,1.663,0,0,1-1.289.639Zm2.992-13.849H205.6a1.272,1.272,0,0,1,1.231-1.029h21.691a1.281,1.281,0,0,1,1.262,1.268v3.4l-1.387,1.788v-2.2A3.238,3.238,0,0,0,225.164,206.038Z" fill="#fff"/>
            <path id="Path_427" data-name="Path 427" d="M223.778,216.515h-1.721a.993.993,0,1,0,0,1.985h1.721a.993.993,0,1,0,0-1.985Z" fill="#fff"/>
        </g>
    </symbol>
</svg>